<svg width="60" height="60" viewBox="0 0 60 60" fill="none" xmlns="http://www.w3.org/2000/svg">
<path d="M50.5274 22.8151V20.5084C50.5274 14.9874 48.5736 9.85714 45.0316 6.05042C41.4013 2.14286 36.4097 0 30.9644 0H29.061C23.6156 0 18.624 2.14286 14.9938 6.05042C11.4518 9.85714 9.49798 14.9874 9.49798 20.5084V22.8151C5.19966 23.105 1.78369 26.6849 1.78369 31.0588V34.6639C1.78369 39.2143 5.48957 42.9202 10.04 42.9202H14.6913C15.5232 42.9202 16.2039 42.2395 16.2039 41.4076V24.3025C16.2039 23.4706 15.5232 22.7899 14.6913 22.7899H12.5232V20.5084C12.5232 10.5378 19.6324 3.02521 29.0484 3.02521H30.9518C40.3803 3.02521 47.477 10.5378 47.477 20.5084V22.7899H45.3089C44.477 22.7899 43.7963 23.4706 43.7963 24.3025V41.395C43.7963 42.2269 44.477 42.9076 45.3089 42.9076H47.4266C46.8089 50.7983 41.3761 52.6261 38.8551 53.042C38.1618 50.9118 36.1576 49.374 33.8005 49.374H30.019C27.0946 49.374 24.7123 51.7563 24.7123 54.6807C24.7123 57.605 27.0946 60 30.019 60H33.8131C36.2585 60 38.3131 58.3361 38.9308 56.0924C40.166 55.916 42.1198 55.4748 44.061 54.3403C46.7963 52.7395 50.0358 49.4748 50.4644 42.895C54.7879 42.6303 58.2165 39.0378 58.2165 34.6513V31.0462C58.2291 26.6849 54.8257 23.0924 50.5274 22.8151ZM13.2039 39.8824H10.0652C7.17865 39.8824 4.83411 37.5378 4.83411 34.6513V31.0462C4.83411 28.1597 7.17865 25.8151 10.0652 25.8151H13.2039V39.8824ZM33.8131 56.9748H30.019C28.7585 56.9748 27.7375 55.9538 27.7375 54.6933C27.7375 53.4328 28.7585 52.4118 30.019 52.4118H33.8131C35.0736 52.4118 36.0946 53.4328 36.0946 54.6933C36.0946 55.9538 35.0736 56.9748 33.8131 56.9748ZM55.2039 34.6513C55.2039 37.5378 52.8593 39.8824 49.9728 39.8824H46.8341V25.8151H49.9728C52.8593 25.8151 55.2039 28.1597 55.2039 31.0462V34.6513Z" fill="#385632"/>
</svg>
