<svg width="60" height="60" viewBox="0 0 60 60" fill="none" xmlns="http://www.w3.org/2000/svg">
<path d="M57.594 14.1452C57.594 13.9173 57.5434 13.6893 57.4421 13.474C57.2395 13.0435 56.8469 12.7522 56.4163 12.6636L30.6206 0.151963C30.2027 -0.0506543 29.7088 -0.0506543 29.2909 0.151963L3.24198 12.7775C2.73544 13.0182 2.40619 13.5247 2.38086 14.0946V14.1072C2.38086 14.1199 2.38086 14.1325 2.38086 14.1579V45.8421C2.38086 46.4247 2.71011 46.9565 3.24198 47.2098L29.2909 59.8354C29.3036 59.8354 29.3036 59.8354 29.3163 59.848C29.3543 59.8607 29.3923 59.8734 29.4302 59.8987C29.4429 59.8987 29.4556 59.9114 29.4809 59.9114C29.5189 59.924 29.5569 59.9367 29.5949 59.9493C29.6075 59.9493 29.6202 59.962 29.6329 59.962C29.6709 59.9747 29.7215 59.9747 29.7595 59.9873C29.7722 59.9873 29.7848 59.9873 29.7975 59.9873C29.8481 59.9873 29.9115 60 29.9621 60C30.0128 60 30.0761 60 30.1267 59.9873C30.1394 59.9873 30.1521 59.9873 30.1647 59.9873C30.2027 59.9873 30.2534 59.9747 30.2914 59.962C30.304 59.962 30.3167 59.9493 30.3294 59.9493C30.3674 59.9367 30.4053 59.924 30.4433 59.9114C30.456 59.9114 30.4687 59.8987 30.494 59.8987C30.532 59.886 30.57 59.8734 30.608 59.848C30.6206 59.848 30.6206 59.848 30.6333 59.8354L56.7582 47.1718C57.2774 46.9185 57.6194 46.3867 57.6194 45.8041V14.1832C57.594 14.1705 57.594 14.1579 57.594 14.1452ZM29.9495 3.20388L52.5413 14.1579L44.2213 18.1976L21.6295 7.24356L29.9495 3.20388ZM29.9495 25.1119L7.35764 14.1579L18.147 8.92782L40.7388 19.8818L29.9495 25.1119ZM5.42012 16.6019L28.4298 27.7585V56.0363L5.42012 44.8797V16.6019ZM31.4691 56.0363V27.7585L42.2711 22.5158V29.9114C42.2711 30.7472 42.9549 31.431 43.7907 31.431C44.6265 31.431 45.3104 30.7472 45.3104 29.9114V21.0342L54.5548 16.5513V44.829L31.4691 56.0363Z" fill="#385632"/>
</svg>
