<svg width="60" height="60" viewBox="0 0 60 60" fill="none" xmlns="http://www.w3.org/2000/svg">
<g clip-path="url(#clip0_446_524)">
<path d="M59.0627 8.34721C59.0527 8.16166 58.9841 7.98406 58.8669 7.83988C58.7497 7.69571 58.5898 7.59238 58.4102 7.54471L30.2064 0.0297048C30.0578 -0.00990159 29.9013 -0.00990159 29.7527 0.0297048L1.58831 7.54471C1.40935 7.59261 1.25009 7.69581 1.13326 7.83958C1.01642 7.98336 0.947977 8.16036 0.937687 8.34533C0.918937 8.69971 0.497062 17.081 3.79331 27.6766C5.73019 33.9053 8.55956 39.5903 12.1989 44.5778C16.7533 50.816 22.5939 55.9666 29.5577 59.8872C29.6863 59.9594 29.8309 59.9981 29.9784 59.9997C30.1258 60.0013 30.2713 59.9659 30.4014 59.8966C37.3783 56.1916 43.2283 51.1703 47.7902 44.9772C51.4352 40.0272 54.2664 34.3235 56.2052 28.0272C59.5033 17.3135 59.0814 8.70721 59.0627 8.34533V8.34721ZM54.5064 27.5678C52.6221 33.6672 49.8789 39.1835 46.3521 43.9647C42.2383 49.541 37.0371 54.1328 30.8796 57.6278V53.1072C38.8633 48.0653 44.8858 40.931 48.7764 31.8897C51.9827 24.446 53.0271 17.3791 53.3383 12.7628C53.3522 12.5593 53.2948 12.3573 53.1761 12.1914C53.0575 12.0255 52.8848 11.906 52.6877 11.8535L50.8952 11.3753C50.6719 11.321 50.4362 11.3563 50.2386 11.4736C50.041 11.5909 49.8971 11.7809 49.8378 12.0029C49.7785 12.2249 49.8085 12.4613 49.9213 12.6615C50.0341 12.8617 50.2208 13.0098 50.4414 13.0741L51.5289 13.3647C51.1708 17.8403 50.1058 24.356 47.1621 31.196C43.4346 39.8547 37.6839 46.6966 30.0696 51.5397C29.3046 51.0335 28.5546 50.5085 27.8289 49.9685C27.6415 49.8372 27.4103 49.7841 27.1845 49.8205C26.9586 49.8569 26.7558 49.98 26.6191 50.1635C26.4824 50.347 26.4227 50.5765 26.4525 50.8034C26.4824 51.0302 26.5995 51.2365 26.7789 51.3785C27.5364 51.941 28.3221 52.4922 29.1227 53.0191V57.5997C22.9596 53.9135 17.7564 49.1997 13.6427 43.5747C10.1177 38.7522 7.37456 33.2491 5.49206 27.2172C2.78081 18.5341 2.64769 11.2122 2.67581 9.07471L29.1208 2.0172V6.03158L7.32581 11.8497C7.12805 11.9024 6.95486 12.0224 6.8361 12.1891C6.71734 12.3558 6.66043 12.5587 6.67519 12.7628C6.90206 15.9391 7.54144 20.8816 9.29644 26.3866C12.1989 35.4916 17.0721 43.0853 23.7827 48.9616C23.8695 49.0381 23.9706 49.0966 24.0801 49.1337C24.1897 49.1709 24.3055 49.186 24.4209 49.1782C24.5363 49.1703 24.649 49.1397 24.7525 49.088C24.856 49.0364 24.9483 48.9647 25.0239 48.8772C25.1771 48.7018 25.2544 48.4728 25.2389 48.2405C25.2235 48.0081 25.1165 47.7914 24.9414 47.6378C18.4746 41.9753 13.7758 34.6478 10.9727 25.8541C9.68639 21.794 8.85258 17.6042 8.48644 13.361L29.9796 7.62346L46.6427 12.0653C46.7556 12.0993 46.8741 12.1103 46.9913 12.0975C47.1085 12.0848 47.2219 12.0486 47.3249 11.9911C47.4278 11.9337 47.5181 11.8561 47.5905 11.763C47.6628 11.6699 47.7157 11.5633 47.746 11.4493C47.7763 11.3354 47.7834 11.2166 47.7669 11.0999C47.7503 10.9831 47.7105 10.8709 47.6497 10.7699C47.5889 10.6689 47.5085 10.5812 47.4131 10.5119C47.3177 10.4426 47.2094 10.3932 47.0946 10.3666L30.8814 6.04283V2.02845L57.3246 9.07471C57.3527 11.2497 57.2252 18.7666 54.5064 27.5678Z" fill="#385632"/>
<path d="M43.2244 20.5385C42.9692 20.2811 42.6654 20.077 42.3306 19.9379C41.9959 19.7989 41.6369 19.7277 41.2744 19.7285C40.912 19.7275 40.5531 19.7984 40.2184 19.9371C39.8836 20.0758 39.5798 20.2796 39.3244 20.5367L28.1213 31.7398L22.005 25.6235C21.7495 25.3668 21.4455 25.1634 21.1108 25.025C20.7761 24.8866 20.4172 24.816 20.055 24.8173C19.6928 24.816 19.3339 24.8866 18.9992 25.025C18.6645 25.1634 18.3605 25.3668 18.105 25.6235C17.848 25.879 17.6443 26.1828 17.5056 26.5176C17.3669 26.8523 17.2959 27.2112 17.2969 27.5735C17.2969 28.3104 17.5838 29.0042 18.1031 29.5235L26.1713 37.5898C26.4266 37.8468 26.7305 38.0506 27.0652 38.1893C27.4 38.3281 27.7589 38.399 28.1213 38.3979C28.4835 38.3992 28.8423 38.3286 29.1771 38.1902C29.5118 38.0518 29.8157 37.8484 30.0713 37.5917L43.2244 24.4385C43.7456 23.9173 44.0306 23.2235 44.0306 22.4885C44.0319 22.1263 43.9613 21.7675 43.8229 21.4327C43.6845 21.098 43.4811 20.7941 43.2244 20.5385ZM41.9813 23.1935L28.8281 36.3467C28.7358 36.4404 28.6258 36.5149 28.5044 36.5657C28.3831 36.6165 28.2528 36.6427 28.1213 36.6427C27.9897 36.6427 27.8594 36.6165 27.7381 36.5657C27.6167 36.5149 27.5067 36.4404 27.4144 36.3467L19.3481 28.2804C19.2546 28.188 19.1803 28.0779 19.1296 27.9566C19.079 27.8352 19.0529 27.705 19.0529 27.5735C19.0529 27.442 19.079 27.3118 19.1296 27.1905C19.1803 27.0692 19.2546 26.9591 19.3481 26.8667C19.4404 26.7729 19.5505 26.6984 19.6718 26.6476C19.7932 26.5968 19.9234 26.5706 20.055 26.5706C20.1866 26.5706 20.3168 26.5968 20.4382 26.6476C20.5596 26.6984 20.6696 26.7729 20.7619 26.8667L27.4988 33.6035C27.8438 33.9467 28.3988 33.9467 28.7419 33.6035L40.5675 21.7798C40.6599 21.6862 40.77 21.612 40.8913 21.5613C41.0127 21.5106 41.1429 21.4845 41.2744 21.4845C41.4059 21.4845 41.5361 21.5106 41.6574 21.5613C41.7788 21.612 41.8888 21.6862 41.9813 21.7798C42.0748 21.8722 42.1491 21.9823 42.1997 22.1036C42.2504 22.225 42.2765 22.3552 42.2765 22.4867C42.2765 22.6182 42.2504 22.7483 42.1997 22.8697C42.1491 22.991 42.0748 23.1011 41.9813 23.1935Z" fill="#385632"/>
</g>
<defs>
<clipPath id="clip0_446_524">
<rect width="60" height="60" fill="white"/>
</clipPath>
</defs>
</svg>
